<?xml version="1.0" standalone="no"?><!DOCTYPE svg PUBLIC "-//W3C//DTD SVG 1.1//EN" "http://www.w3.org/Graphics/SVG/1.1/DTD/svg11.dtd"><svg t="1524191797839" class="icon" style="" viewBox="0 0 1024 1024" version="1.1" xmlns="http://www.w3.org/2000/svg" p-id="1723" xmlns:xlink="http://www.w3.org/1999/xlink" width="16" height="16"><defs><style type="text/css"></style></defs><path d="M919.410114 453.989729l-85.490329-75.295503-46.437295-40.900123-27.068456-23.840146-52.724975-46.437295-195.408514-172.104884-0.012287-0.014335L316.844385 267.515638l-52.724974 46.437295-27.065385 23.837075-46.437295 40.900123-86.856192 76.498568a23.218648 23.218648 0 0 0-7.872654 17.42448c0 19.984194 23.567792 30.632601 38.56464 17.424481l56.164206-49.465948v421.717888c0 36.755435 29.796087 66.550498 66.550498 66.550498h87.777689c36.755435 0 66.551522-29.796087 66.551522-66.550498V687.112035c0-16.028925 12.994129-29.023053 29.023054-29.023053h143.497528c16.028925 0 29.023053 12.994129 29.023054 29.023053v175.177565c0 36.755435 29.796087 66.550498 66.551522 66.550498h87.777689c36.755435 0 66.550498-29.796087 66.550498-66.550498V440.574784l54.798343 48.262882c14.996848 13.208121 38.564641 2.559713 38.56464-17.42448a23.218648 23.218648 0 0 0-7.872654-17.423457zM787.481466 862.2896c0 11.090726-9.022477 20.113203-20.113203 20.113203h-87.777689c-11.090726 0-20.113203-9.022477-20.113203-20.113203V687.112035c0-41.609676-33.851697-75.461372-75.461373-75.461372H440.519494c-41.609676 0-75.461372 33.851697-75.461373 75.461372v175.177565c0 11.090726-9.022477 20.113203-20.113203 20.113203h-87.777689c-11.090726 0-20.113203-9.022477-20.113203-20.113203V399.671589l97.324396-85.718656 52.724974-46.437295 125.16179-110.235589 125.16179 110.235589 52.724975 46.437295 97.328491 85.721727v462.61494z" fill="" p-id="1724"></path></svg>